<?xml version="1.0" standalone="no"?>
<!DOCTYPE svg PUBLIC "-//W3C//DTD SVG 20010904//EN"
 "http://www.w3.org/TR/2001/REC-SVG-20010904/DTD/svg10.dtd">
<svg version="1.0" xmlns="http://www.w3.org/2000/svg"
 width="145.000000pt" height="107.000000pt" viewBox="0 0 145.000000 107.000000"
 preserveAspectRatio="xMidYMid meet">
<metadata>
Created by potrace 1.10, written by Peter Selinger 2001-2011
</metadata>
<g transform="translate(0.000000,107.000000) scale(0.050000,-0.050000)"
fill="#000000" stroke="none">
<path d="M938 2122 c-206 -65 -306 -338 -307 -836 l-1 -224 -87 99 c-300 344
-622 218 -515 -200 75 -291 350 -651 607 -793 l105 -58 -205 -10 c-188 -9
-205 -13 -205 -50 0 -38 15 -40 395 -45 454 -7 458 -5 356 143 -314 457 -416
1018 -292 1612 67 320 365 369 459 75 9 -30 37 -35 202 -35 l192 0 29 68 c115
276 392 192 457 -139 115 -576 10 -1122 -305 -1587 -96 -141 -93 -142 358
-142 393 0 431 6 407 68 -10 26 -49 32 -215 33 -165 1 -196 6 -166 25 21 13
79 51 130 83 217 138 430 414 517 670 160 469 -132 651 -470 293 -59 -62 -108
-112 -110 -112 -2 0 -1 90 2 200 8 244 -57 626 -123 724 -129 192 -428 188
-539 -7 -66 -115 -241 -117 -316 -3 -78 121 -238 186 -360 148z m-641 -889
c163 -91 327 -326 445 -635 42 -110 108 -259 147 -331 84 -152 78 -153 -151
-34 -172 89 -330 232 -445 401 -242 354 -239 733 4 599z m2466 -6 c187 -169
-220 -819 -638 -1020 -181 -87 -181 -86 -93 80 39 73 98 208 131 298 164 452
460 769 600 642z"/>
<path d="M944 1876 c-63 -63 -14 -176 76 -176 66 0 100 34 100 100 0 90 -113
139 -176 76z"/>
<path d="M1796 1850 c-34 -76 6 -150 82 -150 108 0 159 100 85 167 -56 51
-140 42 -167 -17z"/>
</g>
</svg>
